<?xml version="1.0" encoding="UTF-8" standalone="no"?>
<svg
   xmlns:dc="http://purl.org/dc/elements/1.1/"
   xmlns:cc="http://creativecommons.org/ns#"
   xmlns:rdf="http://www.w3.org/1999/02/22-rdf-syntax-ns#"
   xmlns:svg="http://www.w3.org/2000/svg"
   xmlns="http://www.w3.org/2000/svg"
   xmlns:sodipodi="http://sodipodi.sourceforge.net/DTD/sodipodi-0.dtd"
   xmlns:inkscape="http://www.inkscape.org/namespaces/inkscape"
   xml:space="preserve"
   enable-background="new 0 0 300 100"
   viewBox="0 0 300 100"
   height="100px"
   width="300px"
   y="0px"
   x="0px"
   id="Layer_1"
   version="1.1"
   sodipodi:docname="logo.svg"
   inkscape:version="0.92.2 5c3e80d, 2017-08-06"><sodipodi:namedview
     pagecolor="#ffffff"
     bordercolor="#666666"
     borderopacity="1"
     objecttolerance="10"
     gridtolerance="10"
     guidetolerance="10"
     inkscape:pageopacity="0"
     inkscape:pageshadow="2"
     inkscape:window-width="966"
     inkscape:window-height="519"
     id="namedview14"
     showgrid="false"
     inkscape:zoom="1.08"
     inkscape:cx="150"
     inkscape:cy="50"
     inkscape:window-x="386"
     inkscape:window-y="102"
     inkscape:window-maximized="0"
     inkscape:current-layer="Layer_1" /><metadata
     id="metadata25"><rdf:RDF><cc:Work
         rdf:about=""><dc:format>image/svg+xml</dc:format><dc:type
           rdf:resource="http://purl.org/dc/dcmitype/StillImage" /><dc:title /></cc:Work></rdf:RDF></metadata><defs
     id="defs23" /><path
     style="fill:#000000;stroke-width:1.29357183"
     id="path2"
     d="m 99.946532,49.75034 c 0,-5.214388 2.911828,-9.74965 7.197438,-12.065144 -1.15904,-4.4473 -3.05025,-9.098984 -5.48216,-12.913727 -4.640043,1.338847 -9.844083,0.1811 -13.498423,-3.474534 C 84.529744,17.664585 83.368116,12.500647 84.666862,7.8838889 80.557185,5.4442125 76.183618,3.6306248 71.674227,2.4948688 c -2.347833,4.1847048 -6.824885,7.017627 -11.964245,7.017627 -5.156178,0 -9.643578,-2.8484451 -11.982356,-7.0525534 -4.523621,1.1305817 -8.888132,2.9260594 -12.992635,5.3502129 1.329792,4.6348677 0.174632,9.8363197 -3.477121,13.4867797 -3.68668,3.68668 -8.943756,4.817261 -13.612256,3.425378 -2.263751,3.488763 -4.236448,8.556977 -5.372204,12.961589 4.285603,2.318081 7.132755,6.85205 7.198727,12.065145 0.03363,2.614308 -0.924904,8.692802 -7.493661,12.237189 1.113765,4.496455 2.892426,8.819572 5.290708,12.902085 4.756464,-1.566515 10.202401,-0.47086 13.989979,3.314131 3.809569,3.810862 4.892289,9.305955 3.275324,14.089584 4.100623,2.452612 8.42374,4.104503 12.927957,5.248021 2.255989,-4.478346 6.89215,-7.551872 12.247538,-7.551872 5.341157,0 9.96697,3.058003 12.229427,7.518239 4.510685,-1.151279 8.828628,-2.830335 12.918902,-5.282947 -1.579451,-4.766812 -0.48897,-10.226979 3.302489,-14.019731 3.752651,-3.750065 9.136497,-4.862537 13.8658,-3.354232 2.85491,-5.031994 4.03206,-7.955467 5.26871,-12.956415 -4.36709,-2.294797 -7.348778,-6.868867 -7.348778,-12.142759 z M 59.711275,82.450542 c -17.905621,0 -32.419496,-14.512582 -32.419496,-32.415616 0,-17.906914 14.513875,-32.419496 32.419496,-32.419496 17.904327,0 32.418203,14.511288 32.418203,32.419496 0,17.903034 -14.513876,32.415616 -32.418203,32.415616 z"
     inkscape:connector-curvature="0" /><text
     xml:space="preserve"
     style="font-style:normal;font-weight:normal;font-size:40px;line-height:1.25;font-family:sans-serif;letter-spacing:0px;word-spacing:0px;fill:#000000;fill-opacity:1;stroke:none"
     x="31.629629"
     y="65.557877"
     id="text3717"><tspan
       sodipodi:role="line"
       id="tspan3715"
       x="31.629629"
       y="65.557877">DS</tspan></text>
<text
     xml:space="preserve"
     style="font-style:normal;font-weight:normal;font-size:40px;line-height:1.25;font-family:sans-serif;letter-spacing:0px;word-spacing:0px;fill:#000000;fill-opacity:1;stroke:none"
     x="119.59259"
     y="62.927013"
     id="text3721"><tspan
       sodipodi:role="line"
       id="tspan3719"
       x="119.59259"
       y="62.927013"
       style="font-size:32px">breakfast</tspan></text>
</svg>