<?xml version="1.0" encoding="UTF-8" standalone="no"?>
<!-- Generator: Adobe Illustrator 22.1.0, SVG Export Plug-In . SVG Version: 6.00 Build 0)  -->

<svg
   xmlns:dc="http://purl.org/dc/elements/1.1/"
   xmlns:cc="http://creativecommons.org/ns#"
   xmlns:rdf="http://www.w3.org/1999/02/22-rdf-syntax-ns#"
   xmlns:svg="http://www.w3.org/2000/svg"
   xmlns="http://www.w3.org/2000/svg"
   xmlns:xlink="http://www.w3.org/1999/xlink"
   xmlns:sodipodi="http://sodipodi.sourceforge.net/DTD/sodipodi-0.dtd"
   xmlns:inkscape="http://www.inkscape.org/namespaces/inkscape"
   version="1.1"
   id="Layer_1"
   x="0px"
   y="0px"
   viewBox="0 0 150 150"
   xml:space="preserve"
   inkscape:version="0.92.4 5da689c313, 2019-01-14"
   sodipodi:docname="logo.svg"
   width="150"
   height="150"><metadata
     id="metadata26"><rdf:RDF><cc:Work
         rdf:about=""><dc:format>image/svg+xml</dc:format><dc:type
           rdf:resource="http://purl.org/dc/dcmitype/StillImage" /><dc:title /></cc:Work></rdf:RDF></metadata><defs
     id="defs24"><linearGradient
       inkscape:collect="always"
       id="linearGradient5757"><stop
         style="stop-color:#000080;stop-opacity:1"
         offset="0"
         id="stop5759" /><stop
         id="stop5765"
         offset="0.25454804"
         style="stop-color:#f9f9f9;stop-opacity:1" /><stop
         style="stop-color:#ececec;stop-opacity:1"
         offset="0.78703207"
         id="stop5767" /><stop
         style="stop-color:#d40000;stop-opacity:1"
         offset="1"
         id="stop5761" /></linearGradient><linearGradient
       inkscape:collect="always"
       id="linearGradient5719"><stop
         style="stop-color:#000000;stop-opacity:1"
         offset="0"
         id="stop5721" /><stop
         id="stop5731"
         offset="0.48107943"
         style="stop-color:#333333;stop-opacity:1" /><stop
         style="stop-color:#333333;stop-opacity:1"
         offset="0.57026023"
         id="stop5733" /><stop
         style="stop-color:#000000;stop-opacity:1"
         offset="1"
         id="stop5723" /></linearGradient><linearGradient
       inkscape:collect="always"
       xlink:href="#linearGradient5719"
       id="linearGradient5729"
       x1="140.09248"
       y1="98.508736"
       x2="128.50099"
       y2="45.84676"
       gradientUnits="userSpaceOnUse" /><linearGradient
       inkscape:collect="always"
       xlink:href="#linearGradient5757"
       id="linearGradient5763"
       x1="25.415119"
       y1="-202.02798"
       x2="263.53442"
       y2="-224.83498"
       gradientUnits="userSpaceOnUse"
       gradientTransform="translate(-0.2456139,385.7193)" /></defs><sodipodi:namedview
     pagecolor="#ffffff"
     bordercolor="#666666"
     borderopacity="1"
     objecttolerance="10"
     gridtolerance="10"
     guidetolerance="10"
     inkscape:pageopacity="0"
     inkscape:pageshadow="2"
     inkscape:window-width="3840"
     inkscape:window-height="2084"
     id="namedview22"
     showgrid="false"
     inkscape:zoom="2.28"
     inkscape:cx="205.46966"
     inkscape:cy="179.41175"
     inkscape:window-x="0"
     inkscape:window-y="76"
     inkscape:window-maximized="0"
     inkscape:current-layer="Layer_1" /><style
     type="text/css"
     id="style3">
	.st0{fill:url(#SVGID_1_);}
</style><linearGradient
     id="SVGID_1_"
     gradientUnits="userSpaceOnUse"
     x1="255.64058"
     y1="237.26237"
     x2="-58.985191"
     y2="185.9155"
     gradientTransform="translate(7.7607429,-351.7762)"><stop
       offset="0"
       style="stop-color:#EF645E"
       id="stop8" /><stop
       offset="1"
       style="stop-color:#EB1E6F"
       id="stop10" /></linearGradient><g
     id="g36"
     transform="matrix(0.56123279,0,0,0.56123279,-6.9414038,-11.200686)"><path
       id="path5"
       d="m 43.106357,186.33433 c -0.1,-0.2 -0.2,-0.3 -0.3,-0.5 0.1,0.1 0.2,0.3 0.3,0.5 z"
       inkscape:connector-curvature="0" /><path
       sodipodi:nodetypes="csssccscscccc"
       id="path12"
       d="m 260.01514,235.0431 c 8.8,-17.1 13.8,-36.5 13.8,-57.1 0,-69.1 -56.1,-125.200004 -125.2,-125.200004 -69.100011,0 -125.200011,56.000004 -125.200011,125.200004 0,39.7 18.5,75.2 47.4,98.1 2.5,-22.2 4.2,-41.9 3.5,-45.3 -4.4,-20.7 -16.8,-22.9 -8.4,-59.3 17.4,-75.400004 73.600011,-85.100004 104.100011,-78.000004 11.92173,2.76665 22.45176,8.822754 31.31007,18.142874 8.75172,9.20796 15.87171,21.60186 21.08993,37.15713 10.4,31.1 8,47.2 4.1,57.7 -1.1,3.1 -0.9,2.9 15.1,14.7 6.6,4.8 12.7,9.2 18.4,13.9"
       class="st0"
       style="fill:url(#linearGradient5763);fill-opacity:1"
       inkscape:connector-curvature="0" /><path
       id="path14"
       d="m 69.306357,277.73433 c -0.7,0 -1.4,-0.2 -2,-0.7 -31,-24.6 -48.7,-61.2 -48.7,-100.6 0,-70.8 57.6,-128.400003 128.400003,-128.400003 70.8,0 128.5,57.500003 128.5,128.400003 0,20.6 -4.8,40.3 -14.1,58.6 -0.4,0.9 -1.3,1.5 -2.2,1.7 -1,0.2 -1.9,0 -2.7,-0.7 -5,-4.1 -10.4,-8 -16.2,-12.2 l -6,-4.4 c -6.4,-4.7 -9.4,-6.9 -11,-8.6 -2.6,-2.7 -2.1,-4.9 -1.3,-7 3.3,-8.8 6.4,-24.2 -4.1,-55.6 -9.9,-29.5 -27.2,-47.9 -50.1,-53.200003 -7.2,-1.7 -32.9,-6 -58.4,9.900003 -20.700003,12.9 -34.700003,35 -41.800003,65.7 -5.5,24 -1.7,32.2 2.6,41.7 2,4.4 4.3,9.4 5.8,16.2 1.1,5.1 -2,34.1 -3.4,46.3 -0.1,1.2 -0.9,2.2 -2,2.6 -0.5,0.2 -0.9,0.3 -1.3,0.3 z M 147.10636,54.434327 c -67.300003,0 -122.000003,54.700003 -122.000003,122.000003 0,35.4 15.1,68.6 41.6,91.8 2.4,-22.5 3.3,-36.2 2.9,-38.3 -1.3,-6.1 -3.4,-10.5 -5.3,-14.9 -4.7,-10.1 -9.1,-19.7 -3.1,-45.8 7.5,-32.4 22.5,-55.9 44.600003,-69.700003 18.6,-11.6 42.3,-15.6 63.3,-10.7 25.2,5.9 44.1,25.700003 54.8,57.500003 11.2,33.3 7.7,50.1 4.1,59.8 0,0.1 -0.1,0.2 -0.1,0.3 1.1,1.2 4.8,3.9 10.2,7.8 l 6.1,4.4 c 4.6,3.4 9.1,6.6 13.3,9.9 7.7,-16.3 11.7,-33.8 11.7,-52.1 -0.2,-67.3 -54.9,-122.000003 -122.1,-122.000003 z"
       inkscape:connector-curvature="0" /><path
       id="path16"
       d="m 158.70636,204.53433 c -3.2,0 -6.2,-3 -9.4,-9.5 -2.7,-5.4 -5.3,-12.6 -7.6,-21 -2.3,-8.6 -3.3,-16.9 -3,-26.2 0.3,-10.2 2.8,-13.7 3.6,-14.5 0,0 0,0 0,-0.1 0.4,-0.4 9.2,-9.1 24.8,-6.3 15.3,2.8 15.8,11.1 16.1,16.1 0,0.4 0,0.9 0.1,1.3 1,11.2 -8.6,46.5 -18,56.7 -2.1,2.3 -4.3,3.5 -6.6,3.5 0,0 0,0 0,0 z m -11.6,-66.9 c -0.3,0.5 -1.7,3.2 -1.9,10.3 -0.2,8.7 0.7,16.4 2.8,24.4 4.5,16.7 9.2,24.3 11,25.7 1.7,-0.7 6.3,-6.5 11.5,-21.9 4.1,-12.3 6.9,-25.7 6.4,-31.2 0,-0.5 -0.1,-0.9 -0.1,-1.4 -0.3,-4.4 -0.5,-8.2 -10.8,-10.1 -11.3,-2.2 -17.9,3.3 -18.9,4.2 z m -0.1,0.1 c 0,0 -0.1,0 0,0 -0.1,0.1 0,0 0,0 z m 0,0 z"
       inkscape:connector-curvature="0" /><path
       id="path18"
       d="m 125.60636,248.43433 c 0,0 -0.1,0 -0.1,0 -26.200003,-1.1 -45.200003,-9.6 -56.500003,-25.3 -12.1,-16.7 -12.1,-37.5 -8.5,-50.3 0.5,-1.7 2.3,-2.7 4,-2.2 1.7,0.5 2.7,2.3 2.2,4 -2.6,9.2 -3.9,28.9 7.6,44.7 10.1,14 27.400003,21.6 51.500003,22.6 1.8,0.1 3.2,1.6 3.1,3.4 -0.2,1.8 -1.6,3.1 -3.3,3.1 z"
       inkscape:connector-curvature="0" /><path
       id="path20"
       d="M 50.006357,119.33433 H 254.40636 c 0,0 -18.1,31.3 -47.6,33.6 -16.5,1.2 -28.9,-13.3 -35.8,-19.4 -5.2,-4.5 -10,-5.5 -21.3,0 -7.6,3.7 -7.4,11.2 -25.2,17.4 -2,0.7 -32.200003,8.5 -51.900003,-5.4 -2.9,-2.1 -12,-7.7 -18.2,-15.9 -5.9,-8.1 -4.2,-10.1 -4.4,-10.3"
       inkscape:connector-curvature="0" /><path
       inkscape:connector-curvature="0"
       id="path4165"
       d="m 102.07614,93.976133 v -8.570884 l -2.270719,-0.189123 c -4.640283,-0.386493 -8.475033,-1.774359 -10.642392,-3.851684 -3.100301,-2.971511 -3.256163,-8.878897 -0.396425,-15.025256 1.126056,-2.420205 1.662176,-3.166731 4.203681,-5.85348 1.60216,-1.693717 3.821493,-3.71337 4.931843,-4.488119 6.320112,-4.409875 14.213052,-7.596837 23.497132,-9.48751 6.49431,-1.322551 9.39105,-1.577246 19.02303,-1.672593 l 9.3087,-0.09215 2.2888,-2.271839 c 2.59332,-2.57408 6.07966,-4.901911 9.34847,-6.241983 3.23867,-1.327716 7.18038,-2.341461 9.3299,-2.399496 1.82589,-0.04934 1.90182,-0.02215 2.78171,0.994328 1.11185,1.284467 1.4269,2.780759 0.87864,4.172863 -0.54598,1.386302 -1.32118,1.847582 -4.01654,2.390016 -4.14727,0.834636 -8.95384,2.74812 -10.87899,4.330896 -0.54609,0.448959 -0.54568,0.452647 0.0506,0.461865 2.30524,0.03561 12.24109,2.649154 17.7595,4.671481 20.17679,7.394151 32.47821,20.13226 31.49555,32.613621 -0.32931,4.182495 -1.79626,6.781524 -4.65827,8.253049 -2.36283,1.214865 -4.80787,1.590761 -9.1926,1.413256 l -3.66492,-0.148364 v 4.780999 4.780994 h -44.58835 -44.58833 v -8.570896 z"
       style="fill:url(#linearGradient5729);fill-opacity:1;stroke:#000000;stroke-width:6.5;stroke-miterlimit:4;stroke-dasharray:none;stroke-opacity:1" /></g></svg>